<mxfile host="app.diagrams.net" modified="2022-09-14T06:21:42.947Z" agent="5.0 (Windows NT 10.0; Win64; x64) AppleWebKit/537.36 (KHTML, like Gecko) Chrome/105.0.0.0 Safari/537.36" etag="RUQHp3ZwMlODDlQMWRIo" version="20.3.0" type="github">
  <diagram id="LIAqZ3LCY-5Mfy799_NC" name="第 1 页">
    <mxGraphModel dx="1038" dy="538" grid="1" gridSize="10" guides="1" tooltips="1" connect="1" arrows="1" fold="1" page="1" pageScale="1" pageWidth="2000" pageHeight="1169" math="0" shadow="0">
      <root>
        <mxCell id="0" />
        <mxCell id="1" parent="0" />
        <mxCell id="q7om2z9boEjCXW9mnD-f-22" style="edgeStyle=orthogonalEdgeStyle;rounded=0;orthogonalLoop=1;jettySize=auto;html=1;exitX=1;exitY=0.5;exitDx=0;exitDy=0;entryX=0;entryY=0.5;entryDx=0;entryDy=0;" edge="1" parent="1" source="q7om2z9boEjCXW9mnD-f-1" target="q7om2z9boEjCXW9mnD-f-7">
          <mxGeometry relative="1" as="geometry" />
        </mxCell>
        <mxCell id="q7om2z9boEjCXW9mnD-f-31" style="edgeStyle=orthogonalEdgeStyle;rounded=0;orthogonalLoop=1;jettySize=auto;html=1;exitX=0.5;exitY=1;exitDx=0;exitDy=0;startArrow=classic;startFill=1;" edge="1" parent="1" source="q7om2z9boEjCXW9mnD-f-1" target="q7om2z9boEjCXW9mnD-f-4">
          <mxGeometry relative="1" as="geometry" />
        </mxCell>
        <mxCell id="q7om2z9boEjCXW9mnD-f-1" value="N&lt;sub&gt;1,1&lt;/sub&gt;" style="ellipse;whiteSpace=wrap;html=1;aspect=fixed;fillColor=#ffe6cc;strokeColor=#d79b00;" vertex="1" parent="1">
          <mxGeometry x="360" y="130" width="40" height="40" as="geometry" />
        </mxCell>
        <mxCell id="q7om2z9boEjCXW9mnD-f-19" style="edgeStyle=orthogonalEdgeStyle;rounded=0;orthogonalLoop=1;jettySize=auto;html=1;exitX=1;exitY=0.5;exitDx=0;exitDy=0;entryX=0;entryY=0.5;entryDx=0;entryDy=0;" edge="1" parent="1" source="q7om2z9boEjCXW9mnD-f-3" target="q7om2z9boEjCXW9mnD-f-1">
          <mxGeometry relative="1" as="geometry" />
        </mxCell>
        <mxCell id="q7om2z9boEjCXW9mnD-f-20" style="edgeStyle=orthogonalEdgeStyle;rounded=0;orthogonalLoop=1;jettySize=auto;html=1;exitX=1;exitY=0.5;exitDx=0;exitDy=0;entryX=0;entryY=0.5;entryDx=0;entryDy=0;" edge="1" parent="1" source="q7om2z9boEjCXW9mnD-f-3" target="q7om2z9boEjCXW9mnD-f-4">
          <mxGeometry relative="1" as="geometry" />
        </mxCell>
        <mxCell id="q7om2z9boEjCXW9mnD-f-21" style="edgeStyle=orthogonalEdgeStyle;rounded=0;orthogonalLoop=1;jettySize=auto;html=1;exitX=1;exitY=0.5;exitDx=0;exitDy=0;entryX=0;entryY=0.5;entryDx=0;entryDy=0;" edge="1" parent="1" source="q7om2z9boEjCXW9mnD-f-3" target="q7om2z9boEjCXW9mnD-f-5">
          <mxGeometry relative="1" as="geometry" />
        </mxCell>
        <mxCell id="q7om2z9boEjCXW9mnD-f-3" value="Input" style="shape=hexagon;perimeter=hexagonPerimeter2;whiteSpace=wrap;html=1;fixedSize=1;fillColor=#dae8fc;strokeColor=#6c8ebf;fontFamily=Verdana;" vertex="1" parent="1">
          <mxGeometry x="240" y="200" width="80" height="40" as="geometry" />
        </mxCell>
        <mxCell id="q7om2z9boEjCXW9mnD-f-23" style="edgeStyle=orthogonalEdgeStyle;rounded=0;orthogonalLoop=1;jettySize=auto;html=1;exitX=1;exitY=0.5;exitDx=0;exitDy=0;entryX=0;entryY=0.5;entryDx=0;entryDy=0;" edge="1" parent="1" source="q7om2z9boEjCXW9mnD-f-4" target="q7om2z9boEjCXW9mnD-f-8">
          <mxGeometry relative="1" as="geometry" />
        </mxCell>
        <mxCell id="q7om2z9boEjCXW9mnD-f-32" style="edgeStyle=orthogonalEdgeStyle;rounded=0;orthogonalLoop=1;jettySize=auto;html=1;exitX=0.5;exitY=1;exitDx=0;exitDy=0;entryX=0.5;entryY=0;entryDx=0;entryDy=0;startArrow=classic;startFill=1;" edge="1" parent="1" source="q7om2z9boEjCXW9mnD-f-4" target="q7om2z9boEjCXW9mnD-f-5">
          <mxGeometry relative="1" as="geometry" />
        </mxCell>
        <mxCell id="q7om2z9boEjCXW9mnD-f-4" value="N&lt;sub&gt;2,1&lt;/sub&gt;" style="ellipse;whiteSpace=wrap;html=1;aspect=fixed;fillColor=#ffe6cc;strokeColor=#d79b00;" vertex="1" parent="1">
          <mxGeometry x="360" y="200" width="40" height="40" as="geometry" />
        </mxCell>
        <mxCell id="q7om2z9boEjCXW9mnD-f-24" style="edgeStyle=orthogonalEdgeStyle;rounded=0;orthogonalLoop=1;jettySize=auto;html=1;exitX=1;exitY=0.5;exitDx=0;exitDy=0;entryX=0;entryY=0.5;entryDx=0;entryDy=0;" edge="1" parent="1" source="q7om2z9boEjCXW9mnD-f-5" target="q7om2z9boEjCXW9mnD-f-9">
          <mxGeometry relative="1" as="geometry" />
        </mxCell>
        <mxCell id="q7om2z9boEjCXW9mnD-f-5" value="N&lt;sub&gt;3,1&lt;/sub&gt;" style="ellipse;whiteSpace=wrap;html=1;aspect=fixed;fillColor=#ffe6cc;strokeColor=#d79b00;" vertex="1" parent="1">
          <mxGeometry x="360" y="270" width="40" height="40" as="geometry" />
        </mxCell>
        <mxCell id="q7om2z9boEjCXW9mnD-f-27" style="edgeStyle=orthogonalEdgeStyle;rounded=0;orthogonalLoop=1;jettySize=auto;html=1;exitX=1;exitY=0.5;exitDx=0;exitDy=0;" edge="1" parent="1" source="q7om2z9boEjCXW9mnD-f-7" target="q7om2z9boEjCXW9mnD-f-11">
          <mxGeometry relative="1" as="geometry" />
        </mxCell>
        <mxCell id="q7om2z9boEjCXW9mnD-f-34" style="edgeStyle=orthogonalEdgeStyle;rounded=0;orthogonalLoop=1;jettySize=auto;html=1;exitX=0.5;exitY=1;exitDx=0;exitDy=0;entryX=0.5;entryY=0;entryDx=0;entryDy=0;startArrow=classic;startFill=1;" edge="1" parent="1" source="q7om2z9boEjCXW9mnD-f-7" target="q7om2z9boEjCXW9mnD-f-8">
          <mxGeometry relative="1" as="geometry" />
        </mxCell>
        <mxCell id="q7om2z9boEjCXW9mnD-f-7" value="N&lt;sub&gt;1,2&lt;/sub&gt;" style="ellipse;whiteSpace=wrap;html=1;aspect=fixed;fillColor=#ffe6cc;strokeColor=#d79b00;" vertex="1" parent="1">
          <mxGeometry x="440" y="130" width="40" height="40" as="geometry" />
        </mxCell>
        <mxCell id="q7om2z9boEjCXW9mnD-f-26" style="edgeStyle=orthogonalEdgeStyle;rounded=0;orthogonalLoop=1;jettySize=auto;html=1;exitX=1;exitY=0.5;exitDx=0;exitDy=0;entryX=0;entryY=0.5;entryDx=0;entryDy=0;" edge="1" parent="1" source="q7om2z9boEjCXW9mnD-f-8" target="q7om2z9boEjCXW9mnD-f-12">
          <mxGeometry relative="1" as="geometry" />
        </mxCell>
        <mxCell id="q7om2z9boEjCXW9mnD-f-33" style="edgeStyle=orthogonalEdgeStyle;rounded=0;orthogonalLoop=1;jettySize=auto;html=1;exitX=0.5;exitY=1;exitDx=0;exitDy=0;entryX=0.5;entryY=0;entryDx=0;entryDy=0;startArrow=classic;startFill=1;" edge="1" parent="1" source="q7om2z9boEjCXW9mnD-f-8" target="q7om2z9boEjCXW9mnD-f-9">
          <mxGeometry relative="1" as="geometry" />
        </mxCell>
        <mxCell id="q7om2z9boEjCXW9mnD-f-8" value="N&lt;sub&gt;2,2&lt;/sub&gt;" style="ellipse;whiteSpace=wrap;html=1;aspect=fixed;fillColor=#ffe6cc;strokeColor=#d79b00;" vertex="1" parent="1">
          <mxGeometry x="440" y="200" width="40" height="40" as="geometry" />
        </mxCell>
        <mxCell id="q7om2z9boEjCXW9mnD-f-25" style="edgeStyle=orthogonalEdgeStyle;rounded=0;orthogonalLoop=1;jettySize=auto;html=1;exitX=1;exitY=0.5;exitDx=0;exitDy=0;entryX=0;entryY=0.5;entryDx=0;entryDy=0;" edge="1" parent="1" source="q7om2z9boEjCXW9mnD-f-9" target="q7om2z9boEjCXW9mnD-f-13">
          <mxGeometry relative="1" as="geometry" />
        </mxCell>
        <mxCell id="q7om2z9boEjCXW9mnD-f-9" value="N&lt;sub&gt;3,2&lt;/sub&gt;" style="ellipse;whiteSpace=wrap;html=1;aspect=fixed;fillColor=#ffe6cc;strokeColor=#d79b00;" vertex="1" parent="1">
          <mxGeometry x="440" y="270" width="40" height="40" as="geometry" />
        </mxCell>
        <mxCell id="q7om2z9boEjCXW9mnD-f-28" style="edgeStyle=orthogonalEdgeStyle;rounded=0;orthogonalLoop=1;jettySize=auto;html=1;exitX=1;exitY=0.5;exitDx=0;exitDy=0;entryX=0;entryY=0.5;entryDx=0;entryDy=0;" edge="1" parent="1" source="q7om2z9boEjCXW9mnD-f-11" target="q7om2z9boEjCXW9mnD-f-15">
          <mxGeometry relative="1" as="geometry" />
        </mxCell>
        <mxCell id="q7om2z9boEjCXW9mnD-f-35" style="edgeStyle=orthogonalEdgeStyle;rounded=0;orthogonalLoop=1;jettySize=auto;html=1;exitX=0.5;exitY=1;exitDx=0;exitDy=0;entryX=0.5;entryY=0;entryDx=0;entryDy=0;startArrow=classic;startFill=1;" edge="1" parent="1" source="q7om2z9boEjCXW9mnD-f-11" target="q7om2z9boEjCXW9mnD-f-12">
          <mxGeometry relative="1" as="geometry" />
        </mxCell>
        <mxCell id="q7om2z9boEjCXW9mnD-f-11" value="N&lt;sub&gt;1,3&lt;/sub&gt;" style="ellipse;whiteSpace=wrap;html=1;aspect=fixed;fillColor=#ffe6cc;strokeColor=#d79b00;" vertex="1" parent="1">
          <mxGeometry x="520" y="130" width="40" height="40" as="geometry" />
        </mxCell>
        <mxCell id="q7om2z9boEjCXW9mnD-f-29" style="edgeStyle=orthogonalEdgeStyle;rounded=0;orthogonalLoop=1;jettySize=auto;html=1;exitX=1;exitY=0.5;exitDx=0;exitDy=0;entryX=0;entryY=0.5;entryDx=0;entryDy=0;" edge="1" parent="1" source="q7om2z9boEjCXW9mnD-f-12" target="q7om2z9boEjCXW9mnD-f-16">
          <mxGeometry relative="1" as="geometry" />
        </mxCell>
        <mxCell id="q7om2z9boEjCXW9mnD-f-38" style="edgeStyle=orthogonalEdgeStyle;rounded=0;orthogonalLoop=1;jettySize=auto;html=1;exitX=0.5;exitY=1;exitDx=0;exitDy=0;entryX=0.5;entryY=0;entryDx=0;entryDy=0;startArrow=classic;startFill=1;" edge="1" parent="1" source="q7om2z9boEjCXW9mnD-f-12" target="q7om2z9boEjCXW9mnD-f-13">
          <mxGeometry relative="1" as="geometry" />
        </mxCell>
        <mxCell id="q7om2z9boEjCXW9mnD-f-12" value="N&lt;sub&gt;2,3&lt;/sub&gt;" style="ellipse;whiteSpace=wrap;html=1;aspect=fixed;fillColor=#ffe6cc;strokeColor=#d79b00;" vertex="1" parent="1">
          <mxGeometry x="520" y="200" width="40" height="40" as="geometry" />
        </mxCell>
        <mxCell id="q7om2z9boEjCXW9mnD-f-30" style="edgeStyle=orthogonalEdgeStyle;rounded=0;orthogonalLoop=1;jettySize=auto;html=1;exitX=1;exitY=0.5;exitDx=0;exitDy=0;" edge="1" parent="1" source="q7om2z9boEjCXW9mnD-f-13" target="q7om2z9boEjCXW9mnD-f-17">
          <mxGeometry relative="1" as="geometry" />
        </mxCell>
        <mxCell id="q7om2z9boEjCXW9mnD-f-13" value="N&lt;sub&gt;3,3&lt;/sub&gt;" style="ellipse;whiteSpace=wrap;html=1;aspect=fixed;fillColor=#ffe6cc;strokeColor=#d79b00;" vertex="1" parent="1">
          <mxGeometry x="520" y="270" width="40" height="40" as="geometry" />
        </mxCell>
        <mxCell id="q7om2z9boEjCXW9mnD-f-36" style="edgeStyle=orthogonalEdgeStyle;rounded=0;orthogonalLoop=1;jettySize=auto;html=1;exitX=0.5;exitY=1;exitDx=0;exitDy=0;entryX=0.5;entryY=0;entryDx=0;entryDy=0;startArrow=classic;startFill=1;" edge="1" parent="1" source="q7om2z9boEjCXW9mnD-f-15" target="q7om2z9boEjCXW9mnD-f-16">
          <mxGeometry relative="1" as="geometry" />
        </mxCell>
        <mxCell id="q7om2z9boEjCXW9mnD-f-15" value="N&lt;sub&gt;1,4&lt;/sub&gt;" style="ellipse;whiteSpace=wrap;html=1;aspect=fixed;fillColor=#ffe6cc;strokeColor=#d79b00;" vertex="1" parent="1">
          <mxGeometry x="600" y="130" width="40" height="40" as="geometry" />
        </mxCell>
        <mxCell id="q7om2z9boEjCXW9mnD-f-37" style="edgeStyle=orthogonalEdgeStyle;rounded=0;orthogonalLoop=1;jettySize=auto;html=1;exitX=0.5;exitY=1;exitDx=0;exitDy=0;entryX=0.5;entryY=0;entryDx=0;entryDy=0;startArrow=classic;startFill=1;" edge="1" parent="1" source="q7om2z9boEjCXW9mnD-f-16" target="q7om2z9boEjCXW9mnD-f-17">
          <mxGeometry relative="1" as="geometry" />
        </mxCell>
        <mxCell id="q7om2z9boEjCXW9mnD-f-16" value="N&lt;sub&gt;2,4&lt;/sub&gt;" style="ellipse;whiteSpace=wrap;html=1;aspect=fixed;fillColor=#ffe6cc;strokeColor=#d79b00;" vertex="1" parent="1">
          <mxGeometry x="600" y="200" width="40" height="40" as="geometry" />
        </mxCell>
        <mxCell id="q7om2z9boEjCXW9mnD-f-17" value="N&lt;sub&gt;3,4&lt;/sub&gt;" style="ellipse;whiteSpace=wrap;html=1;aspect=fixed;fillColor=#ffe6cc;strokeColor=#d79b00;" vertex="1" parent="1">
          <mxGeometry x="600" y="270" width="40" height="40" as="geometry" />
        </mxCell>
      </root>
    </mxGraphModel>
  </diagram>
</mxfile>
